# xmcd CD database file
#
# Track frame offsets:
#	150
#	23412
#	45165
#	63925
#	93322
#	109207
#	134252
#	156462
#	182265
#	204320
#	244405
#	264444
#	276418
#
# Disc length: 3986 seconds
#
# Revision: 0
# Processed by: cddbd v1.5PL3 Copyright (c) Steve Scherf et al.
# Submitted via: CDex 1.50beta10
#
DISCID=aa0f900d
DTITLE=The Girl from Ipanema - The Girl from Ipanema
DYEAR=2004
DGENRE=Jazz
TTITLE0=DESAFINADO
TTITLE1=BRAZIL
TTITLE2=HOW INSENSITIVE
TTITLE3=BLUE BOSSA
TTITLE4=MAS QUE NADA
TTITLE5=THE GIRL FROM IPANEMA
TTITLE6=QUIET NIGHTS OF QUIET STARS
TTITLE7=AGUA DE BEBER
TTITLE8=WAVE
TTITLE9=SPAIN
TTITLE10=RCA VICTOR GOLD SERIES-IS JAZZ!-FORGOTTEN SONGS
TTITLE11=RCA VICTOR GOLD SERIES-IS JAZZ!-MORE WEST
TTITLE12=DIANA KRALL-LIVE IN PARIS-JUST THE WAY YOU ARE
EXTD=YEAR: 2004
EXTT0=
EXTT1=
EXTT2=
EXTT3=
EXTT4=
EXTT5=
EXTT6=
EXTT7=
EXTT8=
EXTT9=
EXTT10=
EXTT11=
EXTT12=
PLAYORDER=
